<svg xmlns="http://www.w3.org/2000/svg" xmlns:svg="http://www.w3.org/2000/svg" id="svg10" width="546.133" height="546.133" version="1.1" viewBox="0 0 546.133 546.133"><metadata id="metadata16"/><path style="fill:#70c1b3;fill-opacity:1;stroke-width:1.0666666" id="path20" d="M 422.68076,545.60689 C 399.00689,542.14772 376.94759,530.8588 360.0249,513.54254 331.9464,484.81101 322.10652,441.78156 334.8951,403.65091 l 2.46381,-7.34614 -10.75746,-5.7634 c -5.9166,-3.16986 -27.76467,-14.86834 -48.55126,-25.9966 l -37.79381,-20.23321 -3.72185,4.96623 c -19.02048,25.37986 -43.03404,42.04169 -71.67742,49.73347 -59.54471,15.98986 -121.941946,-11.53778 -149.769406,-66.07344 -17.6792901,-34.64751 -18.9280801,-73.6218 -3.54757,-110.7189 6.05749,-14.61041 10.96099,-18.25015 18.99191,-14.0972 6.55742,3.39098 6.80457,7.73514 1.20101,21.11002 -12.9734,30.96562 -12.79086,58.36659 0.60074,90.17868 l 2.84838,6.7664 3.49592,-6.93446 c 4.27897,-8.48771 13.74482,-18.9442 21.9873,-24.28836 3.38509,-2.19479 10.4209,-5.34234 15.63513,-6.99455 l 9.48041,-3.00405 -2.48825,-4.28903 c -5.50566,-9.49019 -7.2049,-17.11768 -7.2527,-32.55569 -0.0496,-16.03396 1.44491,-23.19607 6.80801,-32.62503 10.20796,-17.94676 27.607486,-28.17496 47.929356,-28.17496 20.32382,0 37.74673,10.24349 47.92213,28.17496 5.14285,9.06295 6.47786,15.48589 6.47786,31.16613 0,16.64558 -0.99581,22.1019 -5.76296,31.57691 l -3.53189,7.01982 6.51409,1.82267 c 17.16079,4.80166 32.57643,16.96892 40.25992,31.77635 l 3.77244,7.27019 3.49669,-7.80352 c 6.58191,-14.68882 8.89116,-26.04963 8.95793,-44.07019 0.066,-17.81431 -1.82358,-28.06317 -7.82844,-42.46077 -20.52691,-49.21644 -75.19985,-76.42735 -127.10492,-63.26054 -5.624556,1.42678 -13.957006,4.31777 -18.516546,6.4244 -4.55954,2.10664 -9.87571,3.83025 -11.81371,3.83025 -5.01803,0 -8.96504,-3.7387 -9.69537,-9.1837 -0.84192,-6.27701 2.82759,-9.84529 15.65278,-15.22093 42.184146,-17.68136 87.983286,-12.99438 125.519516,12.84539 9.85913,6.78698 22.54633,19.04798 29.62096,28.62591 2.81668,3.81333 5.65148,6.77696 6.29955,6.58582 1.18439,-0.34929 77.66864,-41.01687 89.91041,-47.80643 l 6.55045,-3.63301 -2.51429,-7.22986 c -6.26802,-18.02369 -7.2598,-40.55579 -2.62511,-59.639662 3.98389,-16.404146 6.91457,-20.543524 14.54481,-20.543524 3.75199,0 4.98078,0.566562 7.35915,3.393104 3.32669,3.953547 3.26385,6.219806 -0.54182,19.540228 -3.22164,11.276241 -3.56843,33.722984 -0.6818,44.133004 2.08043,7.50272 8.03582,21.467 9.15508,21.467 0.39122,0 1.70335,-2.04 2.91585,-4.53334 5.12498,-10.53878 15.89238,-19.96582 27.66216,-24.21866 l 6.50827,-2.35167 -2.75345,-6.5815 c -2.43541,-5.82127 -2.75595,-8.06002 -2.77494,-19.381501 -0.0231,-13.762459 1.26936,-20.203032 5.61429,-27.97695 8.49606,-15.201102 28.30008,-24.737393 45.19276,-21.761806 19.52961,3.440072 33.61117,17.404624 37.28803,36.978203 1.78487,9.501595 0.60776,24.510564 -2.53189,32.283554 l -2.60123,6.44 6.50827,2.36334 c 3.57955,1.29983 8.42828,3.67924 10.77494,5.28757 6.11478,4.19087 13.97936,12.92988 16.72854,18.58851 1.29977,2.67534 2.67652,4.86425 3.05944,4.86425 1.29489,0 7.31378,-14.35133 9.17078,-21.86667 2.49732,-10.10665 2.50854,-31.415649 0.0219,-41.6 C 516.90052,63.834732 497.70759,40.849138 474.07361,30.099719 454.39253,21.1482 430.8233,19.714183 411.6724,26.303057 c -8.97237,3.086948 -13.69496,2.771862 -17.64401,-1.177189 -2.83459,-2.834591 -3.17827,-3.797315 -2.6805,-7.5085 0.31403,-2.341356 1.20734,-5.023767 1.9851,-5.960914 2.01126,-2.4233715 9.59322,-5.4773048 20.11103,-8.100489 13.04119,-3.25252298 36.18438,-3.20966198 49.46617,0.091611 43.47678,10.80642 75.71512,45.970122 82.32604,89.796443 1.92634,12.770491 1.92271,19.251811 -0.018,32.126081 -6.49482,43.08558 -37.67496,77.77522 -80.11703,89.13464 -9.30637,2.49081 -12.59526,2.83451 -27.12386,2.83451 -14.40667,0 -17.85307,-0.35381 -26.79347,-2.7507 -23.44889,-6.28654 -43.7153,-19.33608 -57.47319,-37.00698 -3.95716,-5.08266 -6.38744,-7.34144 -7.46666,-6.93978 -1.65853,0.61727 -95.19488,50.50822 -95.76787,51.0812 -0.17805,0.17806 0.66721,2.90313 1.87835,6.05571 6.62722,17.25055 9.59737,40.06524 7.57926,58.21856 -1.37189,12.34042 -4.03386,24.01678 -7.57926,33.2454 -1.21114,3.15258 -2.02292,5.91114 -1.80393,6.13012 0.74113,0.7411 96.17153,51.60456 96.82088,51.60456 0.35437,0 2.20354,-2.17121 4.10928,-4.82491 8.99764,-12.52899 26.67197,-26.59826 42.33599,-33.70067 4.0349,-1.8295 11.90169,-4.54025 17.48176,-6.02387 19.64064,-5.22202 50.4155,-3.31768 65.70437,4.06578 7.64056,3.68986 9.53978,11.89418 4.02908,17.40489 -3.46588,3.46587 -8.21264,3.67497 -16.74963,0.73781 -13.88264,-4.77633 -32.00229,-5.37168 -47.466,-1.55958 -29.67235,7.3148 -54.69312,31.74037 -63.27237,61.76721 -3.18314,11.14078 -3.44187,33.502 -0.5122,44.26667 1.96586,7.2233 7.98854,21.3352 9.10357,21.33079 0.35315,-10e-4 2.01492,-2.62991 3.69283,-5.84114 5.59498,-10.70788 16.20939,-19.59821 28.00529,-23.45645 l 5.43731,-1.77846 -2.75852,-6.59404 c -2.44118,-5.83544 -2.761,-8.06657 -2.78,-19.39403 -0.0135,-8.03922 0.5497,-14.7692 1.51425,-18.09445 6.2797,-21.64929 27.95243,-35.34286 49.93093,-31.54807 18.95898,3.27345 32.98875,17.39206 36.6499,36.88196 1.78487,9.5016 0.60776,24.51056 -2.53189,32.28355 l -2.60123,6.44 6.50827,2.36334 c 3.57955,1.29983 8.42828,3.67924 10.77494,5.28757 6.11478,4.19087 13.97936,12.92988 16.72854,18.58852 1.29977,2.67533 2.68331,4.86424 3.07453,4.86424 1.16551,0 7.13744,-14.15733 8.99369,-21.32083 3.76415,-14.5263 3.09271,-33.84898 -1.65579,-47.65075 -3.89155,-11.31099 -1.74128,-18.72712 5.84234,-20.14982 8.27346,-1.55211 12.37509,3.69348 16.81809,21.50872 3.53086,14.15774 3.31424,37.45781 -0.48102,51.73949 -8.00404,30.11958 -26.9214,54.21362 -54.12038,68.93024 -19.63277,10.62278 -44.63782,15.09979 -66.49656,11.90584 z m 33.2433,-22.24339 c 11.09576,-2.28958 26.24166,-9.08129 34.70832,-15.5639 l 5.18841,-3.97256 -0.72656,-6.4219 c -1.61243,-14.25198 -8.77055,-22.41103 -23.69236,-27.00531 -10.9216,-3.36266 -13.69327,-3.50664 -21.69121,-1.1268 -7.48946,2.22852 -16.09305,2.24049 -23.50087,0.0326 -7.89762,-2.35379 -11.75434,-2.147 -22.21198,1.1909 -14.43337,4.60688 -21.78123,13.10943 -23.2193,26.86808 l -0.67617,6.46924 5.7375,4.29041 c 19.90759,14.88661 45.17103,20.3799 70.08422,15.23914 z m -4.81166,-77.78309 c 3.36341,-2.31409 5.71307,-5.11815 7.71152,-9.20282 2.63728,-5.3904 2.83632,-6.68761 2.41469,-15.73745 -0.49305,-10.58273 -1.7824,-14.20475 -6.89558,-19.37097 -9.0573,-9.15124 -23.67411,-9.15124 -32.73141,0 -5.1863,5.24009 -6.4166,8.7569 -6.87123,19.6415 -0.39761,9.51944 -0.23697,10.48747 2.65157,15.97886 3.00492,5.71263 8.98338,11.03149 13.65203,12.14579 1.17334,0.28005 5.08033,0.36609 8.68221,0.19121 5.2761,-0.25616 7.48902,-0.96479 11.3862,-3.64612 z M 157.57082,378.95979 c 17.0455,-4.4113 32.85698,-12.83971 46.21335,-24.63432 l 5.27349,-4.65686 -1.13678,-7.3123 c -1.4219,-9.14628 -4.63667,-16.05794 -10.5045,-22.58438 -6.12471,-6.81216 -12.45861,-10.04121 -27.7057,-14.12451 l -12.8,-3.42793 -6.93334,2.54559 c -5.81096,2.13351 -8.91906,2.5456 -19.19999,2.5456 -10.28094,0 -13.38904,-0.41209 -19.2,-2.5456 l -6.93334,-2.54559 -12.681206,3.39936 c -6.97467,1.86965 -14.60285,4.3797 -16.95151,5.5779 -6.57667,3.35516 -13.9471,10.88485 -17.24262,17.61516 -3.11097,6.35344 -5.68396,18.00777 -4.59956,20.83368 1.13978,2.97021 17.64544,15.29984 27.17857,20.30223 23.434626,12.29701 51.757686,15.60233 77.223136,9.01197 z m -10.97349,-96.18743 c 6.88925,-3.74958 11.34326,-8.65099 14.97545,-16.47967 2.4602,-5.30264 2.74758,-7.24347 2.77452,-18.73777 0.0289,-12.35596 -0.0969,-13.08023 -3.45853,-19.90874 -6.10873,-12.40856 -16.60065,-19.08475 -30.0594,-19.12729 -13.43957,-0.0425 -24.03333,6.67526 -30.16344,19.12729 -3.365526,6.83635 -3.486986,7.5386 -3.443586,19.90874 0.0384,10.933 0.39673,13.59966 2.43201,18.09704 6.631616,14.65399 17.029976,21.1803 32.736206,20.54616 6.99917,-0.2826 9.57134,-0.90283 14.20677,-3.42576 z m 314.65573,-89.0251 c 9.54927,-2.71394 21.20005,-8.42694 28.84759,-14.14553 l 5.72334,-4.27972 -0.72816,-6.43604 c -1.58497,-14.00931 -8.73104,-22.32389 -23.13899,-26.92266 -10.45764,-3.3379 -14.31435,-3.54469 -22.21197,-1.1909 -7.41764,2.21072 -16.09663,2.21427 -23.53508,0.01 -8.05445,-2.38722 -10.8332,-2.24808 -21.65701,1.08448 -14.89789,4.58691 -22.32227,13.07294 -23.79908,27.20227 l -0.65136,6.23184 5.7375,4.31448 c 10.38211,7.80716 24.27361,13.74337 38.0904,16.27706 8.24506,1.51196 28.56458,0.34422 37.32282,-2.14491 z M 451.1124,117.04709 c 3.36341,-2.31409 5.71307,-5.11814 7.71152,-9.20281 2.63728,-5.39041 2.83632,-6.68762 2.41469,-15.737454 -0.49299,-10.581385 -1.79406,-14.238013 -6.8734,-19.31735 -9.09136,-9.091354 -23.24701,-9.263792 -32.36477,-0.394254 -5.62509,5.471958 -7.43946,10.622174 -7.46635,21.193659 -0.0205,8.036419 0.35649,9.938769 2.95463,14.912199 2.91088,5.57204 8.92382,10.8955 13.55527,12.00093 1.17334,0.28005 5.08033,0.36609 8.68221,0.19121 5.2761,-0.25616 7.48902,-0.96479 11.3862,-3.64613 z m 52.46492,261.29557 c -3.98321,-1.70567 -6.35152,-5.39449 -6.35152,-9.89301 0,-3.49233 0.64362,-4.8657 3.45926,-7.38147 1.90259,-1.69996 4.62909,-3.09084 6.0589,-3.09084 6.21239,0 11.23336,4.97487 11.23336,11.1302 0,5.91335 -8.87113,11.60266 -14.4,9.23512 z M 41.585824,198.42184 c -6.48083,-3.1972 -7.67582,-11.14637 -2.45975,-16.36244 4.17968,-4.17968 9.0849,-4.40625 13.57619,-0.62707 5.97607,5.02853 4.70418,14.15445 -2.38559,17.11674 -4.56246,1.90632 -4.6102,1.90563 -8.73085,-0.12723 z M 364.79133,49.772315 c -3.2015,-1.350915 -6.814,-6.294717 -6.814,-9.325113 0,-6.68415 6.25649,-11.90704 12.5956,-10.51474 7.75905,1.704173 10.96461,11.637887 5.51349,17.085723 -2.97306,2.971262 -7.92122,4.177792 -11.29509,2.75413 z"/></svg>